/vscmnt/brussel_pixiu_data/_data_brussel/112/vsc11236/PredSimResults/SUBJ07mtu3D/weighted-LRposFixed/trackIG/worker_03.mot
version=1
nRows=8
nColumns=50
inDegrees=yes
endheader
                time	         pelvis_tilt	         pelvis_list	     pelvis_rotation	           pelvis_tx	           pelvis_ty	           pelvis_tz	       hip_flexion_r	     hip_adduction_r	      hip_rotation_r	        knee_angle_r	       ankle_angle_r	         mtp_angle_r	       hip_flexion_l	     hip_adduction_l	      hip_rotation_l	        knee_angle_l	       ankle_angle_l	         mtp_angle_l	    lumbar_extension	      lumbar_bending	     lumbar_rotation	 ercspn_r/activation	 intobl_r/activation	 extobl_r/activation	    abd_r/activation	    add_r/activation	hamstrings_r/activation	bifemsh_r/activation	glut_max_r/activation	iliopsoas_r/activation	rect_fem_r/activation	  vasti_r/activation	gastroc_r/activation	 soleus_r/activation	tib_ant_r/activation	 ercspn_l/activation	 intobl_l/activation	 extobl_l/activation	    abd_l/activation	    add_l/activation	hamstrings_l/activation	bifemsh_l/activation	glut_max_l/activation	iliopsoas_l/activation	rect_fem_l/activation	  vasti_l/activation	gastroc_l/activation	 soleus_l/activation	tib_ant_l/activation	
          1.12655139	         -6.78443714	         -3.91351332	          9.70530229	          1.39692373	          0.84337830	         -0.01363298	         31.77040906	         -0.50626116	         -7.67446679	         -3.54227357	          7.64062699	          0.24901787	        -12.92661181	         -4.61490450	          5.41551298	         -6.55543754	          8.43852928	         28.08578270	         -6.35747819	          2.00717333	         -3.75728995	          0.10404021	          0.18628030	          0.02807817	          0.01187762	          0.13056113	          0.08828844	          0.20573952	          0.01000000	          0.09936746	          0.01000003	          0.01000000	          0.01910836	          0.01000000	          0.27523079	          0.03617604	          0.00999999	          0.01000000	          0.03419145	          0.05083176	          0.02931745	          0.14806568	          0.03274469	          0.41551688	          0.01000009	          0.01000037	          0.29395965	          0.27270876	          0.02078790	
          1.13781691	         -6.85307510	         -3.77417260	          9.62549808	          1.41340398	          0.84145649	         -0.01340332	         31.97600780	         -0.36194341	         -6.94603409	         -5.57245136	          7.30005462	          0.24642657	        -12.99640172	         -4.48307062	          4.91412567	         -8.43626972	          7.73646989	         29.87737840	         -6.16688423	          2.47061213	         -3.82076269	          0.08759374	          0.16248184	          0.02363963	          0.01000003	          0.19645483	          0.07475151	          0.17321663	          0.07873804	          0.08365964	          0.01000003	          0.01000000	          0.02363979	          0.01835439	          0.27812681	          0.09443482	          0.01000000	          0.01000004	          0.02878653	          0.10124918	          0.02468302	          0.12465975	          0.02756848	          0.43072135	          0.01000003	          0.01014861	          0.24749108	          0.25441358	          0.01750179	
          1.14908242	         -6.90378572	         -3.63611496	          9.48438580	          1.43019574	          0.83970932	         -0.01314313	         31.97580566	         -0.23118836	         -6.20672162	         -7.48558507	          6.93824902	          0.23441081	        -12.87966734	         -4.33187708	          4.35447573	        -10.73275217	          6.92227855	         31.60792434	         -5.95899273	          2.95788452	         -3.85588285	          0.07543883	          0.13679705	          0.01990272	          0.07251022	          0.19464060	          0.07227852	          0.14583491	          0.10279144	          0.07043489	          0.01000001	          0.00999999	          0.01990286	          0.01545296	          0.32824624	          0.12479486	          0.01000000	          0.01000001	          0.02423601	          0.09314656	          0.02078121	          0.10495378	          0.02321050	          0.41406906	          0.01000004	          0.01000001	          0.20836817	          0.22744490	          0.01473514	
          1.16034793	         -6.93913854	         -3.49589197	          9.28366473	          1.44707500	          0.83831460	         -0.01278092	         31.79114377	         -0.07534011	         -5.53423963	         -9.07734036	          6.48649629	          0.21871337	        -12.50366129	         -4.16563584	          3.75142584	        -13.52375601	          5.94230297	         33.17777429	         -5.75727843	          3.44880249	         -3.86515297	          0.08932347	          0.11517244	          0.01675654	          0.12373082	          0.20780615	          0.06186179	          0.12278162	          0.14721181	          0.05930068	          0.01000001	          0.00999999	          0.01675666	          0.01301019	          0.35186763	          0.15747572	          0.00999999	          0.01000000	          0.02040483	          0.10318087	          0.01749619	          0.08836290	          0.01954143	          0.39149427	          0.01000001	          0.01000000	          0.17542974	          0.19149085	          0.01240584	
          1.17161345	         -6.95935050	         -3.35892846	          9.02912989	          1.46382812	          0.83741518	         -0.01232154	         31.51706443	          0.10832716	         -4.93998916	        -10.53661007	          6.13538886	          0.20349874	        -11.82434319	         -3.99622186	          3.10412396	        -16.84049508	          4.79545526	         34.34687677	         -5.57947871	          3.94713061	         -3.84760343	          0.08804597	          0.09696621	          0.01410770	          0.15345117	          0.20751782	          0.05208282	          0.10337255	          0.17080190	          0.04992654	          0.01000001	          0.02100540	          0.01410780	          0.01095363	          0.36734427	          0.18726552	          0.00999999	          0.01000001	          0.01717928	          0.10866350	          0.01473045	          0.07439468	          0.01645236	          0.34767197	          0.01000000	          0.00999999	          0.14769814	          0.16122035	          0.01044475	
          1.18287896	         -6.96484883	         -3.22673229	          8.72343853	          1.48031161	          0.83711071	         -0.01178089	         31.20389552	          0.30920740	         -4.42410002	        -11.93602606	          5.90966604	          0.18991282	        -10.82956256	         -3.83625644	          2.40439145	        -20.66514330	          3.50269490	         34.80286962	         -5.43565882	          4.45210504	         -3.80184643	          0.07583322	          0.08163798	          0.01187758	          0.16599019	          0.18857850	          0.04922171	          0.08703163	          0.16785897	          0.04203425	          0.01000001	          0.09614597	          0.01187768	          0.01000002	          0.37586966	          0.21361474	          0.01000000	          0.01000000	          0.01446361	          0.12376911	          0.01240190	          0.06263453	          0.01385160	          0.29271266	          0.01000000	          0.00999999	          0.12435031	          0.13573495	          0.00999999	
          1.19414448	         -6.95850255	         -3.09017769	          8.36597088	          1.49645774	          0.83750670	         -0.01118346	         30.80900980	          0.51530275	         -3.97657016	        -13.17949647	          5.80627581	          0.17573163	         -9.54124758	         -3.68775433	          1.65926656	        -24.88872311	          1.91877211	         34.48676939	         -5.32885196	          4.95047349	         -3.72737030	          0.06384566	          0.06873281	          0.01000001	          0.16658589	          0.15876839	          0.04913302	          0.07327385	          0.14872130	          0.03538956	          0.01000001	          0.16865015	          0.01000009	          0.01000001	          0.37352375	          0.21662363	          0.00999999	          0.01000000	          0.01217723	          0.13870342	          0.01044145	          0.05282056	          0.01166197	          0.24644122	          0.01000000	          0.00999999	          0.10469325	          0.11427824	          0.00999999	
          1.20540999	         -6.94352732	         -2.93557396	          7.95542974	          1.51224646	          0.83863004	         -0.01056047	         30.27814054	          0.71489773	         -3.55962963	        -14.16987006	          5.85311850	          0.16449554	         -8.01022407	         -3.54524908	          0.88759752	        -29.33322210	         -0.10442952	         33.41937730	         -5.25974780	          5.42706455	         -3.62246846	          0.05375306	          0.05786766	          0.01000001	          0.16908526	          0.13367059	          0.04941864	          0.06169087	          0.12521174	          0.02979525	          0.01000001	          0.19906540	          0.01000119	          0.01062824	          0.35911586	          0.21369542	          0.01000000	          0.01000000	          0.01025228	          0.13901105	          0.01187758	          0.04447085	          0.00999999	          0.20748427	          0.01000000	          0.00999999	          0.08814355	          0.09621335	          0.01815950	
